<?xml version="1.0" encoding="utf-8" standalone="no"?>
<!DOCTYPE svg PUBLIC "-//W3C//DTD SVG 1.1//EN"
  "http://www.w3.org/Graphics/SVG/1.1/DTD/svg11.dtd">
<svg xmlns:xlink="http://www.w3.org/1999/xlink" width="177.75pt" height="177.75pt" viewBox="73.125 73.125 177.75 177.75" xmlns="http://www.w3.org/2000/svg" version="1.1">
 <metadata>
  <rdf:RDF xmlns:dc="http://purl.org/dc/elements/1.1/" xmlns:cc="http://creativecommons.org/ns#" xmlns:rdf="http://www.w3.org/1999/02/22-rdf-syntax-ns#">
   <cc:Work>
    <dc:type rdf:resource="http://purl.org/dc/dcmitype/StillImage"/>
    <dc:date>2026-05-22T17:20:33.392442</dc:date>
    <dc:format>image/svg+xml</dc:format>
    <dc:creator>
     <cc:Agent>
      <dc:title>Matplotlib v3.10.6, https://matplotlib.org/</dc:title>
     </cc:Agent>
    </dc:creator>
    <dc:subject>
     <rdf:Bag>
      <rdf:li>sciris_metadata={
  "version": null,
  "timestamp": "2026-May-22 17:20:33",
  "user": "cliffk",
  "system": {
    "platform": "Linux-6.8.0-117-generic-x86_64-with-glibc2.39",
    "executable": "/software/conda/bin/python",
    "version": "3.13.9 | packaged by Anaconda, Inc. | (main, Oct 21 2025, 19:16:10) [GCC 11.2.0]"
  },
  "versions": {
    "python": "3.13.9",
    "sciris": "3.2.9",
    "numpy": "2.3.5",
    "pandas": "2.3.3",
    "matplotlib": "3.10.6"
  },
  "calling_info": {
    "filename": "/home/cliffk/idm/starsimhub.github.io/logo/./starsim-logo.py",
    "lineno": 370
  },
  "git_info": {
    "branch": "main",
    "hash": "bfc42ad",
    "date": "2026-05-22 21:09:33 UTC"
  },
  "pipfreeze": null,
  "require": null,
  "comments": null
}</rdf:li>
     </rdf:Bag>
    </dc:subject>
   </cc:Work>
  </rdf:RDF>
 </metadata>
 <defs>
  <style type="text/css">*{stroke-linejoin: round; stroke-linecap: butt}</style>
 </defs>
 <g id="figure_1">
  <g id="patch_1">
   <path d="M 0 324 
L 324 324 
L 324 0 
L 0 0 
L 0 324 
z
" style="fill: none"/>
  </g>
  <g id="axes_1">
   <g id="line2d_1">
    <path d="M 162 162 
L 162 121.5 
" clip-path="url(#pbbe45a7d90)" style="fill: none; stroke: #000000; stroke-width: 5; stroke-linecap: square"/>
   </g>
   <g id="line2d_2">
    <path d="M 162 162 
L 126.925971 141.75 
" clip-path="url(#pbbe45a7d90)" style="fill: none; stroke: #000000; stroke-width: 5; stroke-linecap: square"/>
   </g>
   <g id="line2d_3">
    <path d="M 162 162 
L 126.925971 182.25 
" clip-path="url(#pbbe45a7d90)" style="fill: none; stroke: #000000; stroke-width: 5; stroke-linecap: square"/>
   </g>
   <g id="line2d_4">
    <path d="M 162 162 
L 162 202.5 
" clip-path="url(#pbbe45a7d90)" style="fill: none; stroke: #000000; stroke-width: 5; stroke-linecap: square"/>
   </g>
   <g id="line2d_5">
    <path d="M 162 162 
L 197.074029 182.25 
" clip-path="url(#pbbe45a7d90)" style="fill: none; stroke: #000000; stroke-width: 5; stroke-linecap: square"/>
   </g>
   <g id="line2d_6">
    <path d="M 162 162 
L 197.074029 141.75 
" clip-path="url(#pbbe45a7d90)" style="fill: none; stroke: #000000; stroke-width: 5; stroke-linecap: square"/>
   </g>
   <g id="line2d_7">
    <path d="M 126.925971 141.75 
L 96.060826 123.93 
" clip-path="url(#pbbe45a7d90)" style="fill: none; stroke: #135e4a; stroke-width: 5; stroke-linecap: square"/>
   </g>
   <g id="line2d_8">
    <path d="M 126.925971 182.25 
L 96.060826 200.07 
" clip-path="url(#pbbe45a7d90)" style="fill: none; stroke: #135e4a; stroke-width: 5; stroke-linecap: square"/>
   </g>
   <g id="line2d_9">
    <path d="M 162 202.5 
L 162 238.14 
" clip-path="url(#pbbe45a7d90)" style="fill: none; stroke: #135e4a; stroke-width: 5; stroke-linecap: square"/>
   </g>
   <g id="line2d_10">
    <path d="M 197.074029 182.25 
L 227.939174 200.07 
" clip-path="url(#pbbe45a7d90)" style="fill: none; stroke: #135e4a; stroke-width: 5; stroke-linecap: square"/>
   </g>
   <g id="line2d_11">
    <path d="M 197.074029 141.75 
L 227.939174 123.93 
" clip-path="url(#pbbe45a7d90)" style="fill: none; stroke: #135e4a; stroke-width: 5; stroke-linecap: square"/>
   </g>
   <g id="line2d_12">
    <path d="M 126.925971 182.25 
L 85.86 162 
" clip-path="url(#pbbe45a7d90)" style="fill: none; stroke: #ffc12f; stroke-width: 5; stroke-linecap: square"/>
   </g>
   <g id="line2d_13">
    <path d="M 85.86 162 
L 126.925971 141.75 
" clip-path="url(#pbbe45a7d90)" style="fill: none; stroke: #ffc12f; stroke-width: 5; stroke-linecap: square"/>
   </g>
   <g id="line2d_14">
    <path d="M 123.93 96.060826 
L 162 121.5 
" clip-path="url(#pbbe45a7d90)" style="fill: none; stroke: #ffc12f; stroke-width: 5; stroke-linecap: square"/>
   </g>
   <g id="line2d_15">
    <path d="M 200.07 96.060826 
L 162 121.5 
" clip-path="url(#pbbe45a7d90)" style="fill: none; stroke: #ffc12f; stroke-width: 5; stroke-linecap: square"/>
   </g>
   <g id="line2d_16">
    <path d="M 123.93 227.939174 
L 162 202.5 
" clip-path="url(#pbbe45a7d90)" style="fill: none; stroke: #ffc12f; stroke-width: 5; stroke-linecap: square"/>
   </g>
   <g id="line2d_17">
    <path d="M 162 202.5 
L 200.07 227.939174 
" clip-path="url(#pbbe45a7d90)" style="fill: none; stroke: #ffc12f; stroke-width: 5; stroke-linecap: square"/>
   </g>
   <g id="line2d_18">
    <path d="M 200.07 227.939174 
L 162 238.14 
" clip-path="url(#pbbe45a7d90)" style="fill: none; stroke: #ffc12f; stroke-width: 5; stroke-linecap: square"/>
   </g>
   <g id="line2d_19">
    <path d="M 162 238.14 
L 123.93 227.939174 
" clip-path="url(#pbbe45a7d90)" style="fill: none; stroke: #ffc12f; stroke-width: 5; stroke-linecap: square"/>
   </g>
   <g id="line2d_20">
    <path d="M 162 85.86 
L 123.93 96.060826 
" clip-path="url(#pbbe45a7d90)" style="fill: none; stroke: #ffc12f; stroke-width: 5; stroke-linecap: square"/>
   </g>
   <g id="line2d_21">
    <path d="M 123.93 96.060826 
L 126.925971 141.75 
" clip-path="url(#pbbe45a7d90)" style="fill: none; stroke: #ffc12f; stroke-width: 5; stroke-linecap: square"/>
   </g>
   <g id="line2d_22">
    <path d="M 200.07 227.939174 
L 197.074029 182.25 
" clip-path="url(#pbbe45a7d90)" style="fill: none; stroke: #ffc12f; stroke-width: 5; stroke-linecap: square"/>
   </g>
   <g id="line2d_23">
    <path d="M 197.074029 182.25 
L 238.14 162 
" clip-path="url(#pbbe45a7d90)" style="fill: none; stroke: #ffc12f; stroke-width: 5; stroke-linecap: square"/>
   </g>
   <g id="line2d_24">
    <path d="M 238.14 162 
L 197.074029 141.75 
" clip-path="url(#pbbe45a7d90)" style="fill: none; stroke: #ffc12f; stroke-width: 5; stroke-linecap: square"/>
   </g>
   <g id="line2d_25">
    <path d="M 126.925971 141.75 
L 96.060826 123.93 
" clip-path="url(#pbbe45a7d90)" style="fill: none; stroke: #135e4a; stroke-width: 5; stroke-linecap: square"/>
   </g>
   <g id="line2d_26">
    <path d="M 126.925971 182.25 
L 96.060826 200.07 
" clip-path="url(#pbbe45a7d90)" style="fill: none; stroke: #135e4a; stroke-width: 5; stroke-linecap: square"/>
   </g>
   <g id="line2d_27">
    <path d="M 162 202.5 
L 162 238.14 
" clip-path="url(#pbbe45a7d90)" style="fill: none; stroke: #135e4a; stroke-width: 5; stroke-linecap: square"/>
   </g>
   <g id="line2d_28">
    <path d="M 197.074029 182.25 
L 227.939174 200.07 
" clip-path="url(#pbbe45a7d90)" style="fill: none; stroke: #135e4a; stroke-width: 5; stroke-linecap: square"/>
   </g>
   <g id="line2d_29">
    <path d="M 197.074029 141.75 
L 227.939174 123.93 
" clip-path="url(#pbbe45a7d90)" style="fill: none; stroke: #135e4a; stroke-width: 5; stroke-linecap: square"/>
   </g>
   <g id="line2d_30">
    <path d="M 162 162 
L 162 121.5 
" clip-path="url(#pbbe45a7d90)" style="fill: none; stroke: #000000; stroke-width: 5; stroke-linecap: square"/>
   </g>
   <g id="line2d_31">
    <path d="M 162 162 
L 126.925971 141.75 
" clip-path="url(#pbbe45a7d90)" style="fill: none; stroke: #000000; stroke-width: 5; stroke-linecap: square"/>
   </g>
   <g id="line2d_32">
    <path d="M 162 162 
L 126.925971 182.25 
" clip-path="url(#pbbe45a7d90)" style="fill: none; stroke: #000000; stroke-width: 5; stroke-linecap: square"/>
   </g>
   <g id="line2d_33">
    <path d="M 162 162 
L 162 202.5 
" clip-path="url(#pbbe45a7d90)" style="fill: none; stroke: #000000; stroke-width: 5; stroke-linecap: square"/>
   </g>
   <g id="line2d_34">
    <path d="M 162 162 
L 197.074029 182.25 
" clip-path="url(#pbbe45a7d90)" style="fill: none; stroke: #000000; stroke-width: 5; stroke-linecap: square"/>
   </g>
   <g id="line2d_35">
    <path d="M 162 162 
L 197.074029 141.75 
" clip-path="url(#pbbe45a7d90)" style="fill: none; stroke: #000000; stroke-width: 5; stroke-linecap: square"/>
   </g>
   <g id="line2d_36">
    <path d="M 126.925971 141.75 
L 96.060826 123.93 
" clip-path="url(#pbbe45a7d90)" style="fill: none; stroke: #135e4a; stroke-width: 5; stroke-linecap: square"/>
   </g>
   <g id="line2d_37">
    <path d="M 126.925971 182.25 
L 96.060826 200.07 
" clip-path="url(#pbbe45a7d90)" style="fill: none; stroke: #135e4a; stroke-width: 5; stroke-linecap: square"/>
   </g>
   <g id="line2d_38">
    <path d="M 162 202.5 
L 162 238.14 
" clip-path="url(#pbbe45a7d90)" style="fill: none; stroke: #135e4a; stroke-width: 5; stroke-linecap: square"/>
   </g>
   <g id="line2d_39">
    <path d="M 197.074029 182.25 
L 227.939174 200.07 
" clip-path="url(#pbbe45a7d90)" style="fill: none; stroke: #135e4a; stroke-width: 5; stroke-linecap: square"/>
   </g>
   <g id="line2d_40">
    <path d="M 197.074029 141.75 
L 227.939174 123.93 
" clip-path="url(#pbbe45a7d90)" style="fill: none; stroke: #135e4a; stroke-width: 5; stroke-linecap: square"/>
   </g>
   <g id="line2d_41">
    <path d="M 126.925971 182.25 
L 85.86 162 
" clip-path="url(#pbbe45a7d90)" style="fill: none; stroke: #ffc12f; stroke-width: 5; stroke-linecap: square"/>
   </g>
   <g id="line2d_42">
    <path d="M 85.86 162 
L 126.925971 141.75 
" clip-path="url(#pbbe45a7d90)" style="fill: none; stroke: #ffc12f; stroke-width: 5; stroke-linecap: square"/>
   </g>
   <g id="line2d_43">
    <path d="M 123.93 96.060826 
L 162 121.5 
" clip-path="url(#pbbe45a7d90)" style="fill: none; stroke: #ffc12f; stroke-width: 5; stroke-linecap: square"/>
   </g>
   <g id="line2d_44">
    <path d="M 200.07 96.060826 
L 162 121.5 
" clip-path="url(#pbbe45a7d90)" style="fill: none; stroke: #ffc12f; stroke-width: 5; stroke-linecap: square"/>
   </g>
   <g id="line2d_45">
    <path d="M 123.93 227.939174 
L 162 202.5 
" clip-path="url(#pbbe45a7d90)" style="fill: none; stroke: #ffc12f; stroke-width: 5; stroke-linecap: square"/>
   </g>
   <g id="line2d_46">
    <path d="M 162 202.5 
L 200.07 227.939174 
" clip-path="url(#pbbe45a7d90)" style="fill: none; stroke: #ffc12f; stroke-width: 5; stroke-linecap: square"/>
   </g>
   <g id="line2d_47">
    <path d="M 200.07 227.939174 
L 162 238.14 
" clip-path="url(#pbbe45a7d90)" style="fill: none; stroke: #ffc12f; stroke-width: 5; stroke-linecap: square"/>
   </g>
   <g id="line2d_48">
    <path d="M 162 238.14 
L 123.93 227.939174 
" clip-path="url(#pbbe45a7d90)" style="fill: none; stroke: #ffc12f; stroke-width: 5; stroke-linecap: square"/>
   </g>
   <g id="line2d_49">
    <path d="M 162 85.86 
L 123.93 96.060826 
" clip-path="url(#pbbe45a7d90)" style="fill: none; stroke: #ffc12f; stroke-width: 5; stroke-linecap: square"/>
   </g>
   <g id="line2d_50">
    <path d="M 123.93 96.060826 
L 126.925971 141.75 
" clip-path="url(#pbbe45a7d90)" style="fill: none; stroke: #ffc12f; stroke-width: 5; stroke-linecap: square"/>
   </g>
   <g id="line2d_51">
    <path d="M 200.07 227.939174 
L 197.074029 182.25 
" clip-path="url(#pbbe45a7d90)" style="fill: none; stroke: #ffc12f; stroke-width: 5; stroke-linecap: square"/>
   </g>
   <g id="line2d_52">
    <path d="M 197.074029 182.25 
L 238.14 162 
" clip-path="url(#pbbe45a7d90)" style="fill: none; stroke: #ffc12f; stroke-width: 5; stroke-linecap: square"/>
   </g>
   <g id="line2d_53">
    <path d="M 238.14 162 
L 197.074029 141.75 
" clip-path="url(#pbbe45a7d90)" style="fill: none; stroke: #ffc12f; stroke-width: 5; stroke-linecap: square"/>
   </g>
   <g id="line2d_54">
    <path d="M 126.925971 141.75 
L 96.060826 123.93 
" clip-path="url(#pbbe45a7d90)" style="fill: none; stroke: #135e4a; stroke-width: 5; stroke-linecap: square"/>
   </g>
   <g id="line2d_55">
    <path d="M 126.925971 182.25 
L 96.060826 200.07 
" clip-path="url(#pbbe45a7d90)" style="fill: none; stroke: #135e4a; stroke-width: 5; stroke-linecap: square"/>
   </g>
   <g id="line2d_56">
    <path d="M 162 202.5 
L 162 238.14 
" clip-path="url(#pbbe45a7d90)" style="fill: none; stroke: #135e4a; stroke-width: 5; stroke-linecap: square"/>
   </g>
   <g id="line2d_57">
    <path d="M 197.074029 182.25 
L 227.939174 200.07 
" clip-path="url(#pbbe45a7d90)" style="fill: none; stroke: #135e4a; stroke-width: 5; stroke-linecap: square"/>
   </g>
   <g id="line2d_58">
    <path d="M 197.074029 141.75 
L 227.939174 123.93 
" clip-path="url(#pbbe45a7d90)" style="fill: none; stroke: #135e4a; stroke-width: 5; stroke-linecap: square"/>
   </g>
   <g id="PathCollection_1">
    <path d="M 162 178.970563 
C 166.500646 178.970563 170.817563 177.182437 174 174 
C 177.182437 170.817563 178.970563 166.500646 178.970563 162 
C 178.970563 157.499354 177.182437 153.182437 174 150 
C 170.817563 146.817563 166.500646 145.029437 162 145.029437 
C 157.499354 145.029437 153.182437 146.817563 150 150 
C 146.817563 153.182437 145.029437 157.499354 145.029437 162 
C 145.029437 166.500646 146.817563 170.817563 150 174 
C 153.182437 177.182437 157.499354 178.970563 162 178.970563 
z
" clip-path="url(#pbbe45a7d90)"/>
    <path d="M 162 134.149111 
C 165.354583 134.149111 168.572223 132.816321 170.944272 130.444272 
C 173.316321 128.072223 174.649111 124.854583 174.649111 121.5 
C 174.649111 118.145417 173.316321 114.927777 170.944272 112.555728 
C 168.572223 110.183679 165.354583 108.850889 162 108.850889 
C 158.645417 108.850889 155.427777 110.183679 153.055728 112.555728 
C 150.683679 114.927777 149.350889 118.145417 149.350889 121.5 
C 149.350889 124.854583 150.683679 128.072223 153.055728 130.444272 
C 155.427777 132.816321 158.645417 134.149111 162 134.149111 
z
" clip-path="url(#pbbe45a7d90)"/>
    <path d="M 126.925971 154.399111 
C 130.280555 154.399111 133.498194 153.066321 135.870243 150.694272 
C 138.242292 148.322223 139.575082 145.104583 139.575082 141.75 
C 139.575082 138.395417 138.242292 135.177777 135.870243 132.805728 
C 133.498194 130.433679 130.280555 129.100889 126.925971 129.100889 
C 123.571388 129.100889 120.353748 130.433679 117.981699 132.805728 
C 115.609651 135.177777 114.276861 138.395417 114.276861 141.75 
C 114.276861 145.104583 115.609651 148.322223 117.981699 150.694272 
C 120.353748 153.066321 123.571388 154.399111 126.925971 154.399111 
z
" clip-path="url(#pbbe45a7d90)"/>
    <path d="M 126.925971 194.899111 
C 130.280555 194.899111 133.498194 193.566321 135.870243 191.194272 
C 138.242292 188.822223 139.575082 185.604583 139.575082 182.25 
C 139.575082 178.895417 138.242292 175.677777 135.870243 173.305728 
C 133.498194 170.933679 130.280555 169.600889 126.925971 169.600889 
C 123.571388 169.600889 120.353748 170.933679 117.981699 173.305728 
C 115.609651 175.677777 114.276861 178.895417 114.276861 182.25 
C 114.276861 185.604583 115.609651 188.822223 117.981699 191.194272 
C 120.353748 193.566321 123.571388 194.899111 126.925971 194.899111 
z
" clip-path="url(#pbbe45a7d90)"/>
    <path d="M 162 215.149111 
C 165.354583 215.149111 168.572223 213.816321 170.944272 211.444272 
C 173.316321 209.072223 174.649111 205.854583 174.649111 202.5 
C 174.649111 199.145417 173.316321 195.927777 170.944272 193.555728 
C 168.572223 191.183679 165.354583 189.850889 162 189.850889 
C 158.645417 189.850889 155.427777 191.183679 153.055728 193.555728 
C 150.683679 195.927777 149.350889 199.145417 149.350889 202.5 
C 149.350889 205.854583 150.683679 209.072223 153.055728 211.444272 
C 155.427777 213.816321 158.645417 215.149111 162 215.149111 
z
" clip-path="url(#pbbe45a7d90)"/>
    <path d="M 197.074029 194.899111 
C 200.428612 194.899111 203.646252 193.566321 206.018301 191.194272 
C 208.390349 188.822223 209.723139 185.604583 209.723139 182.25 
C 209.723139 178.895417 208.390349 175.677777 206.018301 173.305728 
C 203.646252 170.933679 200.428612 169.600889 197.074029 169.600889 
C 193.719445 169.600889 190.501806 170.933679 188.129757 173.305728 
C 185.757708 175.677777 184.424918 178.895417 184.424918 182.25 
C 184.424918 185.604583 185.757708 188.822223 188.129757 191.194272 
C 190.501806 193.566321 193.719445 194.899111 197.074029 194.899111 
z
" clip-path="url(#pbbe45a7d90)"/>
    <path d="M 197.074029 154.399111 
C 200.428612 154.399111 203.646252 153.066321 206.018301 150.694272 
C 208.390349 148.322223 209.723139 145.104583 209.723139 141.75 
C 209.723139 138.395417 208.390349 135.177777 206.018301 132.805728 
C 203.646252 130.433679 200.428612 129.100889 197.074029 129.100889 
C 193.719445 129.100889 190.501806 130.433679 188.129757 132.805728 
C 185.757708 135.177777 184.424918 138.395417 184.424918 141.75 
C 184.424918 145.104583 185.757708 148.322223 188.129757 150.694272 
C 190.501806 153.066321 193.719445 154.399111 197.074029 154.399111 
z
" clip-path="url(#pbbe45a7d90)"/>
    <path d="M 162 85.86 
C 162 85.86 162 85.86 162 85.86 
C 162 85.86 162 85.86 162 85.86 
C 162 85.86 162 85.86 162 85.86 
C 162 85.86 162 85.86 162 85.86 
C 162 85.86 162 85.86 162 85.86 
C 162 85.86 162 85.86 162 85.86 
C 162 85.86 162 85.86 162 85.86 
C 162 85.86 162 85.86 162 85.86 
z
" clip-path="url(#pbbe45a7d90)" style="fill: #ffc12f"/>
    <path d="M 123.93 108.709936 
C 127.284583 108.709936 130.502223 107.377146 132.874272 105.005098 
C 135.246321 102.633049 136.579111 99.415409 136.579111 96.060826 
C 136.579111 92.706242 135.246321 89.488602 132.874272 87.116554 
C 130.502223 84.744505 127.284583 83.411715 123.93 83.411715 
C 120.575417 83.411715 117.357777 84.744505 114.985728 87.116554 
C 112.613679 89.488602 111.280889 92.706242 111.280889 96.060826 
C 111.280889 99.415409 112.613679 102.633049 114.985728 105.005098 
C 117.357777 107.377146 120.575417 108.709936 123.93 108.709936 
z
" clip-path="url(#pbbe45a7d90)" style="fill: #ffc12f"/>
    <path d="M 96.060826 123.93 
C 96.060826 123.93 96.060826 123.93 96.060826 123.93 
C 96.060826 123.93 96.060826 123.93 96.060826 123.93 
C 96.060826 123.93 96.060826 123.93 96.060826 123.93 
C 96.060826 123.93 96.060826 123.93 96.060826 123.93 
C 96.060826 123.93 96.060826 123.93 96.060826 123.93 
C 96.060826 123.93 96.060826 123.93 96.060826 123.93 
C 96.060826 123.93 96.060826 123.93 96.060826 123.93 
C 96.060826 123.93 96.060826 123.93 96.060826 123.93 
z
" clip-path="url(#pbbe45a7d90)" style="fill: #ffc12f"/>
    <path d="M 85.86 174.649111 
C 89.214583 174.649111 92.432223 173.316321 94.804272 170.944272 
C 97.176321 168.572223 98.509111 165.354583 98.509111 162 
C 98.509111 158.645417 97.176321 155.427777 94.804272 153.055728 
C 92.432223 150.683679 89.214583 149.350889 85.86 149.350889 
C 82.505417 149.350889 79.287777 150.683679 76.915728 153.055728 
C 74.543679 155.427777 73.210889 158.645417 73.210889 162 
C 73.210889 165.354583 74.543679 168.572223 76.915728 170.944272 
C 79.287777 173.316321 82.505417 174.649111 85.86 174.649111 
z
" clip-path="url(#pbbe45a7d90)" style="fill: #ffc12f"/>
    <path d="M 96.060826 200.07 
C 96.060826 200.07 96.060826 200.07 96.060826 200.07 
C 96.060826 200.07 96.060826 200.07 96.060826 200.07 
C 96.060826 200.07 96.060826 200.07 96.060826 200.07 
C 96.060826 200.07 96.060826 200.07 96.060826 200.07 
C 96.060826 200.07 96.060826 200.07 96.060826 200.07 
C 96.060826 200.07 96.060826 200.07 96.060826 200.07 
C 96.060826 200.07 96.060826 200.07 96.060826 200.07 
C 96.060826 200.07 96.060826 200.07 96.060826 200.07 
z
" clip-path="url(#pbbe45a7d90)" style="fill: #ffc12f"/>
    <path d="M 123.93 240.588285 
C 127.284583 240.588285 130.502223 239.255495 132.874272 236.883446 
C 135.246321 234.511398 136.579111 231.293758 136.579111 227.939174 
C 136.579111 224.584591 135.246321 221.366951 132.874272 218.994902 
C 130.502223 216.622854 127.284583 215.290064 123.93 215.290064 
C 120.575417 215.290064 117.357777 216.622854 114.985728 218.994902 
C 112.613679 221.366951 111.280889 224.584591 111.280889 227.939174 
C 111.280889 231.293758 112.613679 234.511398 114.985728 236.883446 
C 117.357777 239.255495 120.575417 240.588285 123.93 240.588285 
z
" clip-path="url(#pbbe45a7d90)" style="fill: #ffc12f"/>
    <path d="M 162 238.14 
C 162 238.14 162 238.14 162 238.14 
C 162 238.14 162 238.14 162 238.14 
C 162 238.14 162 238.14 162 238.14 
C 162 238.14 162 238.14 162 238.14 
C 162 238.14 162 238.14 162 238.14 
C 162 238.14 162 238.14 162 238.14 
C 162 238.14 162 238.14 162 238.14 
C 162 238.14 162 238.14 162 238.14 
z
" clip-path="url(#pbbe45a7d90)" style="fill: #ffc12f"/>
    <path d="M 200.07 240.588285 
C 203.424583 240.588285 206.642223 239.255495 209.014272 236.883446 
C 211.386321 234.511398 212.719111 231.293758 212.719111 227.939174 
C 212.719111 224.584591 211.386321 221.366951 209.014272 218.994902 
C 206.642223 216.622854 203.424583 215.290064 200.07 215.290064 
C 196.715417 215.290064 193.497777 216.622854 191.125728 218.994902 
C 188.753679 221.366951 187.420889 224.584591 187.420889 227.939174 
C 187.420889 231.293758 188.753679 234.511398 191.125728 236.883446 
C 193.497777 239.255495 196.715417 240.588285 200.07 240.588285 
z
" clip-path="url(#pbbe45a7d90)" style="fill: #ffc12f"/>
    <path d="M 227.939174 200.07 
C 227.939174 200.07 227.939174 200.07 227.939174 200.07 
C 227.939174 200.07 227.939174 200.07 227.939174 200.07 
C 227.939174 200.07 227.939174 200.07 227.939174 200.07 
C 227.939174 200.07 227.939174 200.07 227.939174 200.07 
C 227.939174 200.07 227.939174 200.07 227.939174 200.07 
C 227.939174 200.07 227.939174 200.07 227.939174 200.07 
C 227.939174 200.07 227.939174 200.07 227.939174 200.07 
C 227.939174 200.07 227.939174 200.07 227.939174 200.07 
z
" clip-path="url(#pbbe45a7d90)" style="fill: #ffc12f"/>
    <path d="M 238.14 174.649111 
C 241.494583 174.649111 244.712223 173.316321 247.084272 170.944272 
C 249.456321 168.572223 250.789111 165.354583 250.789111 162 
C 250.789111 158.645417 249.456321 155.427777 247.084272 153.055728 
C 244.712223 150.683679 241.494583 149.350889 238.14 149.350889 
C 234.785417 149.350889 231.567777 150.683679 229.195728 153.055728 
C 226.823679 155.427777 225.490889 158.645417 225.490889 162 
C 225.490889 165.354583 226.823679 168.572223 229.195728 170.944272 
C 231.567777 173.316321 234.785417 174.649111 238.14 174.649111 
z
" clip-path="url(#pbbe45a7d90)" style="fill: #ffc12f"/>
    <path d="M 227.939174 123.93 
C 227.939174 123.93 227.939174 123.93 227.939174 123.93 
C 227.939174 123.93 227.939174 123.93 227.939174 123.93 
C 227.939174 123.93 227.939174 123.93 227.939174 123.93 
C 227.939174 123.93 227.939174 123.93 227.939174 123.93 
C 227.939174 123.93 227.939174 123.93 227.939174 123.93 
C 227.939174 123.93 227.939174 123.93 227.939174 123.93 
C 227.939174 123.93 227.939174 123.93 227.939174 123.93 
C 227.939174 123.93 227.939174 123.93 227.939174 123.93 
z
" clip-path="url(#pbbe45a7d90)" style="fill: #ffc12f"/>
    <path d="M 200.07 108.709936 
C 203.424583 108.709936 206.642223 107.377146 209.014272 105.005098 
C 211.386321 102.633049 212.719111 99.415409 212.719111 96.060826 
C 212.719111 92.706242 211.386321 89.488602 209.014272 87.116554 
C 206.642223 84.744505 203.424583 83.411715 200.07 83.411715 
C 196.715417 83.411715 193.497777 84.744505 191.125728 87.116554 
C 188.753679 89.488602 187.420889 92.706242 187.420889 96.060826 
C 187.420889 99.415409 188.753679 102.633049 191.125728 105.005098 
C 193.497777 107.377146 196.715417 108.709936 200.07 108.709936 
z
" clip-path="url(#pbbe45a7d90)" style="fill: #ffc12f"/>
    <path d="M 162 98.509111 
C 165.354583 98.509111 168.572223 97.176321 170.944272 94.804272 
C 173.316321 92.432223 174.649111 89.214583 174.649111 85.86 
C 174.649111 82.505417 173.316321 79.287777 170.944272 76.915728 
C 168.572223 74.543679 165.354583 73.210889 162 73.210889 
C 158.645417 73.210889 155.427777 74.543679 153.055728 76.915728 
C 150.683679 79.287777 149.350889 82.505417 149.350889 85.86 
C 149.350889 89.214583 150.683679 92.432223 153.055728 94.804272 
C 155.427777 97.176321 158.645417 98.509111 162 98.509111 
z
" clip-path="url(#pbbe45a7d90)" style="fill: #135e4a"/>
    <path d="M 96.060826 136.579111 
C 99.415409 136.579111 102.633049 135.246321 105.005098 132.874272 
C 107.377146 130.502223 108.709936 127.284583 108.709936 123.93 
C 108.709936 120.575417 107.377146 117.357777 105.005098 114.985728 
C 102.633049 112.613679 99.415409 111.280889 96.060826 111.280889 
C 92.706242 111.280889 89.488602 112.613679 87.116554 114.985728 
C 84.744505 117.357777 83.411715 120.575417 83.411715 123.93 
C 83.411715 127.284583 84.744505 130.502223 87.116554 132.874272 
C 89.488602 135.246321 92.706242 136.579111 96.060826 136.579111 
z
" clip-path="url(#pbbe45a7d90)" style="fill: #135e4a"/>
    <path d="M 96.060826 212.719111 
C 99.415409 212.719111 102.633049 211.386321 105.005098 209.014272 
C 107.377146 206.642223 108.709936 203.424583 108.709936 200.07 
C 108.709936 196.715417 107.377146 193.497777 105.005098 191.125728 
C 102.633049 188.753679 99.415409 187.420889 96.060826 187.420889 
C 92.706242 187.420889 89.488602 188.753679 87.116554 191.125728 
C 84.744505 193.497777 83.411715 196.715417 83.411715 200.07 
C 83.411715 203.424583 84.744505 206.642223 87.116554 209.014272 
C 89.488602 211.386321 92.706242 212.719111 96.060826 212.719111 
z
" clip-path="url(#pbbe45a7d90)" style="fill: #135e4a"/>
    <path d="M 162 250.789111 
C 165.354583 250.789111 168.572223 249.456321 170.944272 247.084272 
C 173.316321 244.712223 174.649111 241.494583 174.649111 238.14 
C 174.649111 234.785417 173.316321 231.567777 170.944272 229.195728 
C 168.572223 226.823679 165.354583 225.490889 162 225.490889 
C 158.645417 225.490889 155.427777 226.823679 153.055728 229.195728 
C 150.683679 231.567777 149.350889 234.785417 149.350889 238.14 
C 149.350889 241.494583 150.683679 244.712223 153.055728 247.084272 
C 155.427777 249.456321 158.645417 250.789111 162 250.789111 
z
" clip-path="url(#pbbe45a7d90)" style="fill: #135e4a"/>
    <path d="M 227.939174 212.719111 
C 231.293758 212.719111 234.511398 211.386321 236.883446 209.014272 
C 239.255495 206.642223 240.588285 203.424583 240.588285 200.07 
C 240.588285 196.715417 239.255495 193.497777 236.883446 191.125728 
C 234.511398 188.753679 231.293758 187.420889 227.939174 187.420889 
C 224.584591 187.420889 221.366951 188.753679 218.994902 191.125728 
C 216.622854 193.497777 215.290064 196.715417 215.290064 200.07 
C 215.290064 203.424583 216.622854 206.642223 218.994902 209.014272 
C 221.366951 211.386321 224.584591 212.719111 227.939174 212.719111 
z
" clip-path="url(#pbbe45a7d90)" style="fill: #135e4a"/>
    <path d="M 227.939174 136.579111 
C 231.293758 136.579111 234.511398 135.246321 236.883446 132.874272 
C 239.255495 130.502223 240.588285 127.284583 240.588285 123.93 
C 240.588285 120.575417 239.255495 117.357777 236.883446 114.985728 
C 234.511398 112.613679 231.293758 111.280889 227.939174 111.280889 
C 224.584591 111.280889 221.366951 112.613679 218.994902 114.985728 
C 216.622854 117.357777 215.290064 120.575417 215.290064 123.93 
C 215.290064 127.284583 216.622854 130.502223 218.994902 132.874272 
C 221.366951 135.246321 224.584591 136.579111 227.939174 136.579111 
z
" clip-path="url(#pbbe45a7d90)" style="fill: #135e4a"/>
    <path d="M 162 178.970563 
C 166.500646 178.970563 170.817563 177.182437 174 174 
C 177.182437 170.817563 178.970563 166.500646 178.970563 162 
C 178.970563 157.499354 177.182437 153.182437 174 150 
C 170.817563 146.817563 166.500646 145.029437 162 145.029437 
C 157.499354 145.029437 153.182437 146.817563 150 150 
C 146.817563 153.182437 145.029437 157.499354 145.029437 162 
C 145.029437 166.500646 146.817563 170.817563 150 174 
C 153.182437 177.182437 157.499354 178.970563 162 178.970563 
z
" clip-path="url(#pbbe45a7d90)"/>
    <path d="M 162 134.149111 
C 165.354583 134.149111 168.572223 132.816321 170.944272 130.444272 
C 173.316321 128.072223 174.649111 124.854583 174.649111 121.5 
C 174.649111 118.145417 173.316321 114.927777 170.944272 112.555728 
C 168.572223 110.183679 165.354583 108.850889 162 108.850889 
C 158.645417 108.850889 155.427777 110.183679 153.055728 112.555728 
C 150.683679 114.927777 149.350889 118.145417 149.350889 121.5 
C 149.350889 124.854583 150.683679 128.072223 153.055728 130.444272 
C 155.427777 132.816321 158.645417 134.149111 162 134.149111 
z
" clip-path="url(#pbbe45a7d90)"/>
    <path d="M 126.925971 154.399111 
C 130.280555 154.399111 133.498194 153.066321 135.870243 150.694272 
C 138.242292 148.322223 139.575082 145.104583 139.575082 141.75 
C 139.575082 138.395417 138.242292 135.177777 135.870243 132.805728 
C 133.498194 130.433679 130.280555 129.100889 126.925971 129.100889 
C 123.571388 129.100889 120.353748 130.433679 117.981699 132.805728 
C 115.609651 135.177777 114.276861 138.395417 114.276861 141.75 
C 114.276861 145.104583 115.609651 148.322223 117.981699 150.694272 
C 120.353748 153.066321 123.571388 154.399111 126.925971 154.399111 
z
" clip-path="url(#pbbe45a7d90)"/>
    <path d="M 126.925971 194.899111 
C 130.280555 194.899111 133.498194 193.566321 135.870243 191.194272 
C 138.242292 188.822223 139.575082 185.604583 139.575082 182.25 
C 139.575082 178.895417 138.242292 175.677777 135.870243 173.305728 
C 133.498194 170.933679 130.280555 169.600889 126.925971 169.600889 
C 123.571388 169.600889 120.353748 170.933679 117.981699 173.305728 
C 115.609651 175.677777 114.276861 178.895417 114.276861 182.25 
C 114.276861 185.604583 115.609651 188.822223 117.981699 191.194272 
C 120.353748 193.566321 123.571388 194.899111 126.925971 194.899111 
z
" clip-path="url(#pbbe45a7d90)"/>
    <path d="M 162 215.149111 
C 165.354583 215.149111 168.572223 213.816321 170.944272 211.444272 
C 173.316321 209.072223 174.649111 205.854583 174.649111 202.5 
C 174.649111 199.145417 173.316321 195.927777 170.944272 193.555728 
C 168.572223 191.183679 165.354583 189.850889 162 189.850889 
C 158.645417 189.850889 155.427777 191.183679 153.055728 193.555728 
C 150.683679 195.927777 149.350889 199.145417 149.350889 202.5 
C 149.350889 205.854583 150.683679 209.072223 153.055728 211.444272 
C 155.427777 213.816321 158.645417 215.149111 162 215.149111 
z
" clip-path="url(#pbbe45a7d90)"/>
    <path d="M 197.074029 194.899111 
C 200.428612 194.899111 203.646252 193.566321 206.018301 191.194272 
C 208.390349 188.822223 209.723139 185.604583 209.723139 182.25 
C 209.723139 178.895417 208.390349 175.677777 206.018301 173.305728 
C 203.646252 170.933679 200.428612 169.600889 197.074029 169.600889 
C 193.719445 169.600889 190.501806 170.933679 188.129757 173.305728 
C 185.757708 175.677777 184.424918 178.895417 184.424918 182.25 
C 184.424918 185.604583 185.757708 188.822223 188.129757 191.194272 
C 190.501806 193.566321 193.719445 194.899111 197.074029 194.899111 
z
" clip-path="url(#pbbe45a7d90)"/>
    <path d="M 197.074029 154.399111 
C 200.428612 154.399111 203.646252 153.066321 206.018301 150.694272 
C 208.390349 148.322223 209.723139 145.104583 209.723139 141.75 
C 209.723139 138.395417 208.390349 135.177777 206.018301 132.805728 
C 203.646252 130.433679 200.428612 129.100889 197.074029 129.100889 
C 193.719445 129.100889 190.501806 130.433679 188.129757 132.805728 
C 185.757708 135.177777 184.424918 138.395417 184.424918 141.75 
C 184.424918 145.104583 185.757708 148.322223 188.129757 150.694272 
C 190.501806 153.066321 193.719445 154.399111 197.074029 154.399111 
z
" clip-path="url(#pbbe45a7d90)"/>
    <path d="M 162 85.86 
C 162 85.86 162 85.86 162 85.86 
C 162 85.86 162 85.86 162 85.86 
C 162 85.86 162 85.86 162 85.86 
C 162 85.86 162 85.86 162 85.86 
C 162 85.86 162 85.86 162 85.86 
C 162 85.86 162 85.86 162 85.86 
C 162 85.86 162 85.86 162 85.86 
C 162 85.86 162 85.86 162 85.86 
z
" clip-path="url(#pbbe45a7d90)" style="fill: #ffc12f"/>
    <path d="M 123.93 108.709936 
C 127.284583 108.709936 130.502223 107.377146 132.874272 105.005098 
C 135.246321 102.633049 136.579111 99.415409 136.579111 96.060826 
C 136.579111 92.706242 135.246321 89.488602 132.874272 87.116554 
C 130.502223 84.744505 127.284583 83.411715 123.93 83.411715 
C 120.575417 83.411715 117.357777 84.744505 114.985728 87.116554 
C 112.613679 89.488602 111.280889 92.706242 111.280889 96.060826 
C 111.280889 99.415409 112.613679 102.633049 114.985728 105.005098 
C 117.357777 107.377146 120.575417 108.709936 123.93 108.709936 
z
" clip-path="url(#pbbe45a7d90)" style="fill: #ffc12f"/>
    <path d="M 96.060826 123.93 
C 96.060826 123.93 96.060826 123.93 96.060826 123.93 
C 96.060826 123.93 96.060826 123.93 96.060826 123.93 
C 96.060826 123.93 96.060826 123.93 96.060826 123.93 
C 96.060826 123.93 96.060826 123.93 96.060826 123.93 
C 96.060826 123.93 96.060826 123.93 96.060826 123.93 
C 96.060826 123.93 96.060826 123.93 96.060826 123.93 
C 96.060826 123.93 96.060826 123.93 96.060826 123.93 
C 96.060826 123.93 96.060826 123.93 96.060826 123.93 
z
" clip-path="url(#pbbe45a7d90)" style="fill: #ffc12f"/>
    <path d="M 85.86 174.649111 
C 89.214583 174.649111 92.432223 173.316321 94.804272 170.944272 
C 97.176321 168.572223 98.509111 165.354583 98.509111 162 
C 98.509111 158.645417 97.176321 155.427777 94.804272 153.055728 
C 92.432223 150.683679 89.214583 149.350889 85.86 149.350889 
C 82.505417 149.350889 79.287777 150.683679 76.915728 153.055728 
C 74.543679 155.427777 73.210889 158.645417 73.210889 162 
C 73.210889 165.354583 74.543679 168.572223 76.915728 170.944272 
C 79.287777 173.316321 82.505417 174.649111 85.86 174.649111 
z
" clip-path="url(#pbbe45a7d90)" style="fill: #ffc12f"/>
    <path d="M 96.060826 200.07 
C 96.060826 200.07 96.060826 200.07 96.060826 200.07 
C 96.060826 200.07 96.060826 200.07 96.060826 200.07 
C 96.060826 200.07 96.060826 200.07 96.060826 200.07 
C 96.060826 200.07 96.060826 200.07 96.060826 200.07 
C 96.060826 200.07 96.060826 200.07 96.060826 200.07 
C 96.060826 200.07 96.060826 200.07 96.060826 200.07 
C 96.060826 200.07 96.060826 200.07 96.060826 200.07 
C 96.060826 200.07 96.060826 200.07 96.060826 200.07 
z
" clip-path="url(#pbbe45a7d90)" style="fill: #ffc12f"/>
    <path d="M 123.93 240.588285 
C 127.284583 240.588285 130.502223 239.255495 132.874272 236.883446 
C 135.246321 234.511398 136.579111 231.293758 136.579111 227.939174 
C 136.579111 224.584591 135.246321 221.366951 132.874272 218.994902 
C 130.502223 216.622854 127.284583 215.290064 123.93 215.290064 
C 120.575417 215.290064 117.357777 216.622854 114.985728 218.994902 
C 112.613679 221.366951 111.280889 224.584591 111.280889 227.939174 
C 111.280889 231.293758 112.613679 234.511398 114.985728 236.883446 
C 117.357777 239.255495 120.575417 240.588285 123.93 240.588285 
z
" clip-path="url(#pbbe45a7d90)" style="fill: #ffc12f"/>
    <path d="M 162 238.14 
C 162 238.14 162 238.14 162 238.14 
C 162 238.14 162 238.14 162 238.14 
C 162 238.14 162 238.14 162 238.14 
C 162 238.14 162 238.14 162 238.14 
C 162 238.14 162 238.14 162 238.14 
C 162 238.14 162 238.14 162 238.14 
C 162 238.14 162 238.14 162 238.14 
C 162 238.14 162 238.14 162 238.14 
z
" clip-path="url(#pbbe45a7d90)" style="fill: #ffc12f"/>
    <path d="M 200.07 240.588285 
C 203.424583 240.588285 206.642223 239.255495 209.014272 236.883446 
C 211.386321 234.511398 212.719111 231.293758 212.719111 227.939174 
C 212.719111 224.584591 211.386321 221.366951 209.014272 218.994902 
C 206.642223 216.622854 203.424583 215.290064 200.07 215.290064 
C 196.715417 215.290064 193.497777 216.622854 191.125728 218.994902 
C 188.753679 221.366951 187.420889 224.584591 187.420889 227.939174 
C 187.420889 231.293758 188.753679 234.511398 191.125728 236.883446 
C 193.497777 239.255495 196.715417 240.588285 200.07 240.588285 
z
" clip-path="url(#pbbe45a7d90)" style="fill: #ffc12f"/>
    <path d="M 227.939174 200.07 
C 227.939174 200.07 227.939174 200.07 227.939174 200.07 
C 227.939174 200.07 227.939174 200.07 227.939174 200.07 
C 227.939174 200.07 227.939174 200.07 227.939174 200.07 
C 227.939174 200.07 227.939174 200.07 227.939174 200.07 
C 227.939174 200.07 227.939174 200.07 227.939174 200.07 
C 227.939174 200.07 227.939174 200.07 227.939174 200.07 
C 227.939174 200.07 227.939174 200.07 227.939174 200.07 
C 227.939174 200.07 227.939174 200.07 227.939174 200.07 
z
" clip-path="url(#pbbe45a7d90)" style="fill: #ffc12f"/>
    <path d="M 238.14 174.649111 
C 241.494583 174.649111 244.712223 173.316321 247.084272 170.944272 
C 249.456321 168.572223 250.789111 165.354583 250.789111 162 
C 250.789111 158.645417 249.456321 155.427777 247.084272 153.055728 
C 244.712223 150.683679 241.494583 149.350889 238.14 149.350889 
C 234.785417 149.350889 231.567777 150.683679 229.195728 153.055728 
C 226.823679 155.427777 225.490889 158.645417 225.490889 162 
C 225.490889 165.354583 226.823679 168.572223 229.195728 170.944272 
C 231.567777 173.316321 234.785417 174.649111 238.14 174.649111 
z
" clip-path="url(#pbbe45a7d90)" style="fill: #ffc12f"/>
    <path d="M 227.939174 123.93 
C 227.939174 123.93 227.939174 123.93 227.939174 123.93 
C 227.939174 123.93 227.939174 123.93 227.939174 123.93 
C 227.939174 123.93 227.939174 123.93 227.939174 123.93 
C 227.939174 123.93 227.939174 123.93 227.939174 123.93 
C 227.939174 123.93 227.939174 123.93 227.939174 123.93 
C 227.939174 123.93 227.939174 123.93 227.939174 123.93 
C 227.939174 123.93 227.939174 123.93 227.939174 123.93 
C 227.939174 123.93 227.939174 123.93 227.939174 123.93 
z
" clip-path="url(#pbbe45a7d90)" style="fill: #ffc12f"/>
    <path d="M 200.07 108.709936 
C 203.424583 108.709936 206.642223 107.377146 209.014272 105.005098 
C 211.386321 102.633049 212.719111 99.415409 212.719111 96.060826 
C 212.719111 92.706242 211.386321 89.488602 209.014272 87.116554 
C 206.642223 84.744505 203.424583 83.411715 200.07 83.411715 
C 196.715417 83.411715 193.497777 84.744505 191.125728 87.116554 
C 188.753679 89.488602 187.420889 92.706242 187.420889 96.060826 
C 187.420889 99.415409 188.753679 102.633049 191.125728 105.005098 
C 193.497777 107.377146 196.715417 108.709936 200.07 108.709936 
z
" clip-path="url(#pbbe45a7d90)" style="fill: #ffc12f"/>
    <path d="M 162 98.509111 
C 165.354583 98.509111 168.572223 97.176321 170.944272 94.804272 
C 173.316321 92.432223 174.649111 89.214583 174.649111 85.86 
C 174.649111 82.505417 173.316321 79.287777 170.944272 76.915728 
C 168.572223 74.543679 165.354583 73.210889 162 73.210889 
C 158.645417 73.210889 155.427777 74.543679 153.055728 76.915728 
C 150.683679 79.287777 149.350889 82.505417 149.350889 85.86 
C 149.350889 89.214583 150.683679 92.432223 153.055728 94.804272 
C 155.427777 97.176321 158.645417 98.509111 162 98.509111 
z
" clip-path="url(#pbbe45a7d90)" style="fill: #135e4a"/>
    <path d="M 96.060826 136.579111 
C 99.415409 136.579111 102.633049 135.246321 105.005098 132.874272 
C 107.377146 130.502223 108.709936 127.284583 108.709936 123.93 
C 108.709936 120.575417 107.377146 117.357777 105.005098 114.985728 
C 102.633049 112.613679 99.415409 111.280889 96.060826 111.280889 
C 92.706242 111.280889 89.488602 112.613679 87.116554 114.985728 
C 84.744505 117.357777 83.411715 120.575417 83.411715 123.93 
C 83.411715 127.284583 84.744505 130.502223 87.116554 132.874272 
C 89.488602 135.246321 92.706242 136.579111 96.060826 136.579111 
z
" clip-path="url(#pbbe45a7d90)" style="fill: #135e4a"/>
    <path d="M 96.060826 212.719111 
C 99.415409 212.719111 102.633049 211.386321 105.005098 209.014272 
C 107.377146 206.642223 108.709936 203.424583 108.709936 200.07 
C 108.709936 196.715417 107.377146 193.497777 105.005098 191.125728 
C 102.633049 188.753679 99.415409 187.420889 96.060826 187.420889 
C 92.706242 187.420889 89.488602 188.753679 87.116554 191.125728 
C 84.744505 193.497777 83.411715 196.715417 83.411715 200.07 
C 83.411715 203.424583 84.744505 206.642223 87.116554 209.014272 
C 89.488602 211.386321 92.706242 212.719111 96.060826 212.719111 
z
" clip-path="url(#pbbe45a7d90)" style="fill: #135e4a"/>
    <path d="M 162 250.789111 
C 165.354583 250.789111 168.572223 249.456321 170.944272 247.084272 
C 173.316321 244.712223 174.649111 241.494583 174.649111 238.14 
C 174.649111 234.785417 173.316321 231.567777 170.944272 229.195728 
C 168.572223 226.823679 165.354583 225.490889 162 225.490889 
C 158.645417 225.490889 155.427777 226.823679 153.055728 229.195728 
C 150.683679 231.567777 149.350889 234.785417 149.350889 238.14 
C 149.350889 241.494583 150.683679 244.712223 153.055728 247.084272 
C 155.427777 249.456321 158.645417 250.789111 162 250.789111 
z
" clip-path="url(#pbbe45a7d90)" style="fill: #135e4a"/>
    <path d="M 227.939174 212.719111 
C 231.293758 212.719111 234.511398 211.386321 236.883446 209.014272 
C 239.255495 206.642223 240.588285 203.424583 240.588285 200.07 
C 240.588285 196.715417 239.255495 193.497777 236.883446 191.125728 
C 234.511398 188.753679 231.293758 187.420889 227.939174 187.420889 
C 224.584591 187.420889 221.366951 188.753679 218.994902 191.125728 
C 216.622854 193.497777 215.290064 196.715417 215.290064 200.07 
C 215.290064 203.424583 216.622854 206.642223 218.994902 209.014272 
C 221.366951 211.386321 224.584591 212.719111 227.939174 212.719111 
z
" clip-path="url(#pbbe45a7d90)" style="fill: #135e4a"/>
    <path d="M 227.939174 136.579111 
C 231.293758 136.579111 234.511398 135.246321 236.883446 132.874272 
C 239.255495 130.502223 240.588285 127.284583 240.588285 123.93 
C 240.588285 120.575417 239.255495 117.357777 236.883446 114.985728 
C 234.511398 112.613679 231.293758 111.280889 227.939174 111.280889 
C 224.584591 111.280889 221.366951 112.613679 218.994902 114.985728 
C 216.622854 117.357777 215.290064 120.575417 215.290064 123.93 
C 215.290064 127.284583 216.622854 130.502223 218.994902 132.874272 
C 221.366951 135.246321 224.584591 136.579111 227.939174 136.579111 
z
" clip-path="url(#pbbe45a7d90)" style="fill: #135e4a"/>
   </g>
  </g>
 </g>
 <defs>
  <clipPath id="pbbe45a7d90">
   <rect x="0" y="0" width="324" height="324"/>
  </clipPath>
 </defs>
</svg>
